<svg id="Layer_1" data-name="Layer 1" xmlns="http://www.w3.org/2000/svg" viewBox="0 0 382.548 340.958"><path d="M-.726,108.259c.875-4,1.569-8.04,2.652-11.977C10.822,63.956,39.369,41.331,72.915,41c42.043-.415,84.093-.153,126.139-.1,9.031.012,15.791,6.735,15.688,15.176-.1,8.547-6.733,14.778-15.975,14.786q-61.759.054-123.52.032c-23.658.031-41.991,15.856-45.607,39.266a46.711,46.711,0,0,0-.4,7.1q-.032,88.336-.062,176.674c-.01,7.195,2.357,12.848,9.089,15.779,6.562,2.857,12.313.934,17.465-3.842,7.235-6.706,14.734-13.125,21.977-19.821a18.923,18.923,0,0,1,13.585-5.13q77.856.093,155.711.018c22.017-.025,39.411-13.719,44.534-35.014A47.5,47.5,0,0,0,292.7,235.54c.146-10.751.023-21.5.064-32.258.034-9.119,6.354-15.865,14.847-15.951s15.121,6.685,15.055,15.723c-.1,14.242.457,28.564-.839,42.708-2.936,32.043-30.572,60.077-62.366,64.293a109.2,109.2,0,0,1-14.166.879q-72.615.093-145.23-.029a11.79,11.79,0,0,0-8.97,3.38c-5.86,5.608-11.9,11.06-18.156,16.214A44.84,44.84,0,0,1-.02,303.9a14.9,14.9,0,0,0-.706-2.066Z"/><path d="M162.13,201.491c1.694-31.156,13.107-57.229,34.51-78.769Q251.047,67.971,305.676,13.44a44.889,44.889,0,0,1,76.815,33.89,42.851,42.851,0,0,1-12.535,28.909c-37.26,37.455-74.4,75.039-112.038,112.1-21.738,21.4-48.438,31.946-78.958,32.544-11,.216-17.228-6.19-16.835-17.178C162.161,202.711,162.13,201.71,162.13,201.491ZM193.22,189.5c17.6-3.633,32.08-10.873,43.951-22.688Q292.641,111.6,347.779,56.054c6.474-6.5,6.477-15.737.345-21.746-6.064-5.942-15.26-5.659-21.718.807Q271.632,89.964,216.913,144.869a83.167,83.167,0,0,0-18.949,29.352C196.168,178.932,194.948,183.864,193.22,189.5Z"/><path d="M96.59,160.91c-7.351,0-14.7.068-22.052-.018-8.716-.1-15.181-6.3-15.358-14.561a14.917,14.917,0,0,1,15.006-15.364q22.422-.281,44.85,0a14.894,14.894,0,0,1,14.987,15.382c-.192,8.264-6.658,14.442-15.382,14.542C111.292,160.977,103.94,160.91,96.59,160.91Z"/><path d="M96.74,220.935c-7.351,0-14.7.06-22.052-.016-8.921-.092-15.443-6.367-15.512-14.79a14.968,14.968,0,0,1,15.233-15.153q22.237-.227,44.477.006a14.935,14.935,0,0,1,15.141,15.241c-.115,8.276-6.573,14.51-15.235,14.707-.249,0-.5.006-.748.006Z"/></svg>