<svg xmlns="http://www.w3.org/2000/svg" width="16.378" height="16.38" viewBox="0 0 16.378 16.38">
  <path id="Path_6133" data-name="Path 6133" d="M5.632.512A.512.512,0,0,1,6.144,0h4.095a.512.512,0,0,1,0,1.024H9.215v1.1a7.168,7.168,0,0,1,3.621,12.55l.836.835a.512.512,0,1,1-.725.725L12,15.283a7.171,7.171,0,0,1-7.62,0l-.946.946a.512.512,0,0,1-.725-.725l.836-.835A7.168,7.168,0,0,1,7.168,2.119v-1.1H6.143A.512.512,0,0,1,5.631.512Zm-4.75,5A2.559,2.559,0,1,1,4.493,1.9,8.225,8.225,0,0,0,.882,5.515ZM13.821,1.024a2.553,2.553,0,0,0-1.932.88A8.225,8.225,0,0,1,15.5,5.515a2.559,2.559,0,0,0-1.679-4.491ZM8.7,5.118a.512.512,0,0,0-1.024,0V9.092L6.2,12.055a.512.512,0,1,0,.915.459L8.648,9.442A.512.512,0,0,0,8.7,9.213Z" transform="translate(-0.003)" fill="#174275" fill-rule="evenodd"/>
</svg>
