<svg xmlns="http://www.w3.org/2000/svg" width="13.306" height="19.199" viewBox="0 0 13.306 19.199">
  <path id="bookmark" d="M11.191,0a.882.882,0,0,1,.423.108,1.161,1.161,0,0,1,.5.493,1.507,1.507,0,0,1,.187.746v15.5a1.507,1.507,0,0,1-.187.746,1.161,1.161,0,0,1-.5.493.892.892,0,0,1-.423.1,1.028,1.028,0,0,1-.8-.385l-4.24-5.1-4.24,5.1a1.035,1.035,0,0,1-.8.4.882.882,0,0,1-.423-.108,1.161,1.161,0,0,1-.5-.493A1.51,1.51,0,0,1,0,16.852V1.347A1.507,1.507,0,0,1,.187.6a1.161,1.161,0,0,1,.5-.493A.882.882,0,0,1,1.115,0H11.191Z" transform="translate(0.5 0.5)" fill="none" stroke="#3e89ff" stroke-width="1"/>
</svg>
