<svg xmlns="http://www.w3.org/2000/svg" width="24" height="27.429" viewBox="0 0 24 27.429">
  <path id="Icon_awesome-book" data-name="Icon awesome-book" d="M24,19.286v-18A1.283,1.283,0,0,0,22.714,0H5.143A5.144,5.144,0,0,0,0,5.143V22.286a5.144,5.144,0,0,0,5.143,5.143H22.714A1.283,1.283,0,0,0,24,26.143v-.857a1.3,1.3,0,0,0-.477-1,11.947,11.947,0,0,1,0-4A1.277,1.277,0,0,0,24,19.286ZM6.857,7.179a.322.322,0,0,1,.321-.321H18.536a.322.322,0,0,1,.321.321V8.25a.322.322,0,0,1-.321.321H7.179a.322.322,0,0,1-.321-.321Zm0,3.429a.322.322,0,0,1,.321-.321H18.536a.322.322,0,0,1,.321.321v1.071a.322.322,0,0,1-.321.321H7.179a.322.322,0,0,1-.321-.321ZM20.432,24H5.143a1.714,1.714,0,0,1,0-3.429H20.432A19.286,19.286,0,0,0,20.432,24Z" fill="#b8a5d6"/>
</svg>
