<svg id="Layer_1" data-name="Layer 1" xmlns="http://www.w3.org/2000/svg" viewBox="0 0 150 150"><path d="M145.755,70.591v8.842a7.829,7.829,0,0,0-.23,1.066,67.5,67.5,0,0,1-9.794,30.708c-11.238,18.257-27.406,29.5-48.528,33.464-2.564.481-5.171.728-7.758,1.083H70.6c-.445-.084-.888-.185-1.336-.25-2.955-.43-5.95-.677-8.861-1.308A68.9,68.9,0,0,1,18.977,118C5.919,100.857,1.517,81.507,5.869,60.419,9.71,41.812,19.807,27.112,35.476,16.449,50.958,5.914,68.146,2.283,86.617,5.235a68.209,68.209,0,0,1,35.238,16.846A69.591,69.591,0,0,1,144.669,62.82C145.126,65.393,145.4,68,145.755,70.591ZM68.5,86.207c-.537-.689-.711-.969-.938-1.2-4.616-4.626-9.25-9.234-13.854-13.873a5.865,5.865,0,0,0-6.158-1.747c-4.39,1.29-5.616,6.606-2.287,9.963q9.091,9.168,18.25,18.266c3.321,3.322,6.455,3.315,9.794-.024q18.4-18.4,36.8-36.811a15.925,15.925,0,0,0,1.14-1.2,5.858,5.858,0,0,0-3.531-9.515,6,6,0,0,0-5.578,2.011Q85.9,68.356,69.646,84.609A13.709,13.709,0,0,0,68.5,86.207Z"/></svg>