<svg xmlns="http://www.w3.org/2000/svg" width="25" height="25" viewBox="0 0 25 25"><g transform="translate(-21 -610)"><circle cx="12.5" cy="12.5" r="12.5" transform="translate(21 610)" fill="#fff"/><path d="M9.1,3.412H5.687V6.825H9.1ZM10.237,9.1v1.137H4.55V9.1Zm0-6.825V7.962H4.55V2.275ZM15.924,9.1v1.137h-4.55V9.1Zm0-2.275V7.962h-4.55V6.825Zm0-2.275V5.687h-4.55V4.55Zm0-2.275V3.412h-4.55V2.275ZM2.275,10.806V2.275H1.137v8.531a.547.547,0,0,0,.169.4.558.558,0,0,0,.8,0A.547.547,0,0,0,2.275,10.806Zm14.787,0V1.137H3.412v9.668a1.691,1.691,0,0,1-.1.569H16.493a.577.577,0,0,0,.569-.569ZM18.2,0V10.806a1.7,1.7,0,0,1-1.706,1.706H1.706a1.647,1.647,0,0,1-1.209-.5A1.643,1.643,0,0,1,0,10.806V1.137H2.275V0Z" transform="translate(24.4 616.244)" fill="#ef6517"/></g></svg>