<svg id="Layer_1" data-name="Layer 1" xmlns="http://www.w3.org/2000/svg" viewBox="0 0 800 800"><path d="M400.58,7.01q181.989,0,363.979.02c18.937.006,30,10.558,26.932,26.434-1.039,5.368-4.4,10.639-7.766,15.15Q659.8,214.487,535.409,380.006c-14.441,19.133-21.166,39.261-20.965,63.176.637,75.6-.093,151.2.5,226.8.125,15.872-5.4,25.319-19.672,32.306-57.666,28.226-115.218,56.72-172.169,86.355-20.05,10.434-39.2.355-38.989-24.03.936-107.786.168-215.586.595-323.379.09-22.753-6.462-42-20.158-60.179Q139.61,215.253,15.669,48.7c-3.917-5.251-7.3-11.922-8.081-18.283C6.055,17.923,15.333,8.232,27.941,7.2c3.949-.323,7.938-.184,11.909-.184Q220.216,7,400.58,7.01Zm-.909,45.607q-135.964,0-271.927.1c-5.291.008-11.078.4-15.775,2.516C97.084,61.956,95.094,78.8,106.845,94.5q97.766,130.64,195.7,261.151c18.611,24.663,27.784,51.606,27.639,82.515-.4,84.289-.163,168.582-.12,252.873.012,23.911,16.262,34.268,37.48,23.789,27.818-13.738,55.383-28,83.32-41.482,12.892-6.223,18.579-15.271,18.485-29.872-.44-68.732.063-137.469-.315-206.2-.166-30.127,8.759-56.534,26.873-80.578Q594.093,226.363,691.673,95.573c6.864-9.146,11.951-18.362,6.217-29.839-5.674-11.355-15.761-13.254-27.376-13.228Q535.093,52.806,399.671,52.617Z"/></svg>