<svg xmlns="http://www.w3.org/2000/svg" xmlns:xlink="http://www.w3.org/1999/xlink" width="21" height="21" viewBox="0 0 21 21"><defs><radialGradient id="a" cx="0.5" cy="0.5" r="0.5" gradientUnits="objectBoundingBox"><stop offset="0" stop-color="#f5945d"/><stop offset="1" stop-color="#ef6517"/></radialGradient></defs><g transform="translate(-22 -122)"><circle cx="10.5" cy="10.5" r="10.5" transform="translate(22 122)" fill="url(#a)"/><g transform="translate(23.422 123.426)"><path d="M1306.994,356.782h-1.366c-.194-.032-.39-.059-.583-.1a9.114,9.114,0,0,1-7.24-6.016,16.342,16.342,0,0,1-.531-2.243v-1.366c.032-.2.064-.39.094-.586A9.024,9.024,0,1,1,1315.24,349a8.977,8.977,0,0,1-6.343,7.368A15.732,15.732,0,0,1,1306.994,356.782Zm-8.187-9.023a7.5,7.5,0,1,0,7.52-7.518A7.407,7.407,0,0,0,1298.808,347.759Z" transform="translate(-1297.274 -338.717)" fill="#fff"/><path d="M1333.1,380.993c0-1.461,0-2.865,0-4.268,0-.227-.01-.456,0-.682a.56.56,0,1,1,1.118.044c.01.736,0,1.472,0,2.208v.992c.156-.086.269-.143.377-.206,1.094-.642,2.184-1.291,3.283-1.924a.464.464,0,0,0,.285-.5,3.345,3.345,0,0,1,0-.6.575.575,0,0,1,.6-.572.536.536,0,0,1,.542.574c0,.04,0,.08,0,.12-.032,1.726.261,1.257-1.2,2.135-1.156.695-2.315,1.385-3.489,2.048a.689.689,0,0,0-.4.723c.028.774.009,1.549.009,2.348.67.106,1.316.2,1.957.316a1.577,1.577,0,0,1,.39.191c-.1.108-.2.218-.3.325-.028.029-.062.051-.131.108.145.086.271.169.4.238.77.4,1.536.805,2.315,1.187a.7.7,0,0,1,.435.731c-.013.24,0,.482,0,.722a.549.549,0,0,1-.56.6c-.351-.015-.6-.243-.543-.56.107-.625-.267-.827-.718-1.041-.613-.291-1.21-.616-1.809-.924-.034.04-.056.056-.063.077-.053.166-.1.333-.153.5a2.579,2.579,0,0,1-.437-.28c-.248-.238-.471-.5-.777-.831,0,.765.013,1.439-.008,2.111a.819.819,0,0,1-.192.534.583.583,0,0,1-.527.117.809.809,0,0,1-.377-.537c-.044-.707-.018-1.417-.018-2.127V382.1c-.16-.008-.3-.021-.441-.021-.963,0-1.927,0-2.89,0-.47,0-.683-.17-.688-.535s.2-.547.673-.549C1330.849,380.99,1331.944,380.993,1333.1,380.993Z" transform="translate(-1326.514 -372.509)" fill="#fff"/></g></g></svg>