<svg id="Layer_1" data-name="Layer 1" xmlns="http://www.w3.org/2000/svg" viewBox="0 0 1124.065 571.419"><defs><style>.cls-1,.cls-3,.cls-4,.cls-5{opacity:0.2;}.cls-2{fill:#fdba25;}.cls-3{fill:#73c16a;}.cls-4{fill:#5196d0;}.cls-5{fill:#9654a1;}</style></defs><g class="cls-1"><polygon class="cls-2" points="555.608 226.721 562.032 25.737 568.457 226.721 555.608 226.721"/></g><g class="cls-1"><polygon class="cls-2" points="568.013 226.675 616.084 31.418 580.581 229.346 568.013 226.675"/></g><g class="cls-1"><polygon class="cls-2" points="580.156 229.208 667.773 48.213 591.894 234.434 580.156 229.208"/></g><g class="cls-1"><polygon class="cls-2" points="591.507 234.211 714.84 75.387 601.902 241.763 591.507 234.211"/></g><g class="cls-1"><polygon class="cls-2" points="601.57 241.464 755.23 111.754 610.168 251.013 601.57 241.464"/></g><g class="cls-1"><polygon class="cls-2" points="609.906 250.652 787.175 155.723 616.33 261.779 609.906 250.652"/></g><g class="cls-1"><polygon class="cls-2" points="616.148 261.371 809.281 205.374 620.119 273.591 616.148 261.371"/></g><g class="cls-1"><polygon class="cls-2" points="620.026 273.154 820.581 258.535 621.369 285.933 620.026 273.154"/></g><g class="cls-1"><polygon class="cls-2" points="621.369 285.486 820.581 312.884 620.026 298.265 621.369 285.486"/></g><g class="cls-1"><polygon class="cls-2" points="620.119 297.828 809.281 366.046 616.148 310.048 620.119 297.828"/></g><g class="cls-1"><polygon class="cls-2" points="616.33 309.64 787.175 415.696 609.906 320.768 616.33 309.64"/></g><g class="cls-1"><polygon class="cls-2" points="610.168 320.406 755.23 459.665 601.57 329.955 610.168 320.406"/></g><g class="cls-1"><polygon class="cls-2" points="601.902 329.656 714.84 496.032 591.507 337.209 601.902 329.656"/></g><g class="cls-1"><polygon class="cls-2" points="591.894 336.985 667.773 523.206 580.156 342.211 591.894 336.985"/></g><g class="cls-1"><polygon class="cls-2" points="580.581 342.073 616.084 540.001 568.013 344.745 580.581 342.073"/></g><g class="cls-1"><polygon class="cls-2" points="568.457 344.698 562.032 545.682 555.608 344.698 568.457 344.698"/></g><g class="cls-1"><polygon class="cls-2" points="556.052 344.745 507.981 540.001 543.484 342.073 556.052 344.745"/></g><g class="cls-1"><polygon class="cls-2" points="543.909 342.211 456.292 523.206 532.17 336.985 543.909 342.211"/></g><g class="cls-1"><polygon class="cls-2" points="532.557 337.209 409.224 496.032 522.162 329.656 532.557 337.209"/></g><g class="cls-1"><polygon class="cls-2" points="522.494 329.955 368.835 459.665 513.896 320.406 522.494 329.955"/></g><g class="cls-1"><polygon class="cls-2" points="514.159 320.768 336.889 415.696 507.735 309.64 514.159 320.768"/></g><g class="cls-1"><polygon class="cls-2" points="507.916 310.048 314.784 366.046 503.946 297.828 507.916 310.048"/></g><g class="cls-1"><polygon class="cls-2" points="504.038 298.265 303.484 312.884 502.695 285.486 504.038 298.265"/></g><g class="cls-1"><polygon class="cls-2" points="502.695 285.933 303.484 258.535 504.038 273.154 502.695 285.933"/></g><g class="cls-1"><polygon class="cls-2" points="503.946 273.591 314.784 205.374 507.916 261.371 503.946 273.591"/></g><g class="cls-1"><polygon class="cls-2" points="507.735 261.779 336.889 155.723 514.159 250.652 507.735 261.779"/></g><g class="cls-1"><polygon class="cls-2" points="513.896 251.013 368.835 111.754 522.494 241.464 513.896 251.013"/></g><g class="cls-1"><polygon class="cls-2" points="522.162 241.763 409.224 75.387 532.557 234.211 522.162 241.763"/></g><g class="cls-1"><polygon class="cls-2" points="532.17 234.434 456.292 48.213 543.909 229.208 532.17 234.434"/></g><g class="cls-1"><polygon class="cls-2" points="543.484 229.346 507.981 31.418 556.052 226.675 543.484 229.346"/></g><path class="cls-3" d="M833.742,134.627S829.1,170.24,869.355,170.24c0,0-37.243,2.486-37.243,37.243,0,0-3.138-35.98-35.98-35.98C796.132,171.5,829.1,169.466,833.742,134.627Z"/><path class="cls-4" d="M903.9,304.013s-3.27,25.069,25.07,25.069c0,0-26.217,1.75-26.217,26.218,0,0-2.209-25.328-25.328-25.328C877.423,329.972,900.628,328.537,903.9,304.013Z"/><path class="cls-5" d="M1070.35,22.569s-3.27,25.07,25.069,25.07c0,0-26.217,1.75-26.217,26.217,0,0-2.209-25.327-25.328-25.327C1043.874,48.529,1067.08,47.094,1070.35,22.569Z"/><path class="cls-4" d="M953.5,88.181s-2.484,19.045,19.045,19.045c0,0-19.917,1.33-19.917,19.917,0,0-1.677-19.241-19.241-19.241C933.39,107.9,951.019,106.812,953.5,88.181Z"/><path class="cls-5" d="M887.161,445.079s-4.645,35.613,35.613,35.613c0,0-37.243,2.485-37.243,37.242,0,0-3.137-35.979-35.979-35.979C849.552,481.955,882.516,479.917,887.161,445.079Z"/><path class="cls-5" d="M741.847,5.775s-3.27,25.069,25.069,25.069c0,0-26.217,1.75-26.217,26.218,0,0-2.208-25.328-25.328-25.328C715.371,31.734,738.577,30.3,741.847,5.775Z"/><path class="cls-4" d="M1006.923,398.633s-2.485,19.045,19.045,19.045c0,0-19.917,1.329-19.917,19.917,0,0-1.678-19.241-19.241-19.241C986.81,418.354,1004.438,417.264,1006.923,398.633Z"/><path class="cls-3" d="M1055,239.054s-2.484,19.045,19.045,19.045c0,0-19.917,1.33-19.917,19.917,0,0-1.678-19.241-19.241-19.241C1034.884,258.775,1052.513,257.685,1055,239.054Z"/><path class="cls-4" d="M286.45,134.627s4.645,35.613-35.613,35.613c0,0,37.243,2.486,37.243,37.243,0,0,3.137-35.98,35.979-35.98C324.059,171.5,291.1,169.466,286.45,134.627Z"/><path class="cls-5" d="M216.294,304.013s3.27,25.069-25.07,25.069c0,0,26.217,1.75,26.217,26.218,0,0,2.209-25.328,25.328-25.328C242.769,329.972,219.564,328.537,216.294,304.013Z"/><path class="cls-5" d="M49.842,22.569s3.27,25.07-25.07,25.07c0,0,26.217,1.75,26.217,26.217,0,0,2.209-25.327,25.328-25.327C76.317,48.529,53.112,47.094,49.842,22.569Z"/><path class="cls-3" d="M166.688,88.181s2.484,19.045-19.045,19.045c0,0,19.917,1.33,19.917,19.917,0,0,1.678-19.241,19.241-19.241C186.8,107.9,169.172,106.812,166.688,88.181Z"/><path class="cls-4" d="M233.03,445.079s4.645,35.613-35.613,35.613c0,0,37.243,2.485,37.243,37.242,0,0,3.138-35.979,35.98-35.979C270.64,481.955,237.675,479.917,233.03,445.079Z"/><path class="cls-3" d="M378.345,5.775s3.27,25.069-25.07,25.069c0,0,26.217,1.75,26.217,26.218,0,0,2.209-25.328,25.328-25.328C404.82,31.734,381.615,30.3,378.345,5.775Z"/><path class="cls-3" d="M113.269,398.633s2.484,19.045-19.045,19.045c0,0,19.917,1.329,19.917,19.917,0,0,1.678-19.241,19.241-19.241C133.382,418.354,115.753,417.264,113.269,398.633Z"/><path class="cls-4" d="M65.195,239.054S67.679,258.1,46.15,258.1c0,0,19.916,1.33,19.916,19.917,0,0,1.678-19.241,19.242-19.241C85.308,258.775,67.679,257.685,65.195,239.054Z"/><path class="cls-5" d="M51.735,507.871s1.767,28.883-30.883,28.883c0,0,30.205,2.017,30.205,30.206,0,0,2.545-29.181,29.181-29.181C80.238,537.779,53.5,536.754,51.735,507.871Z"/></svg>