<svg xmlns="http://www.w3.org/2000/svg" width="23.6" height="15.733" viewBox="0 0 23.6 15.733">
  <g id="Group_758" data-name="Group 758" transform="translate(-378.2 -685.633)">
    <path id="Icon_awesome-video" data-name="Icon awesome-video" d="M13.775,4.5H1.958A1.958,1.958,0,0,0,0,6.458V18.275a1.958,1.958,0,0,0,1.958,1.958H13.775a1.958,1.958,0,0,0,1.958-1.958V6.458A1.958,1.958,0,0,0,13.775,4.5Zm7.76,1.545-4.491,3.1v6.449l4.491,3.093A1.314,1.314,0,0,0,23.6,17.627V7.1A1.314,1.314,0,0,0,21.535,6.045Z" transform="translate(378.2 681.133)" fill="#ef6517"/>
    <path id="Polygon_12" data-name="Polygon 12" d="M3.5,0,7,6H0Z" transform="translate(390 690) rotate(90)" fill="#fff"/>
  </g>
</svg>
