<svg id="Layer_1" data-name="Layer 1" xmlns="http://www.w3.org/2000/svg" viewBox="0 0 500 500"><path d="M199.8339,250.1425q0,91.1577-.0264,182.3153c-.031,23.8194-14.3331,43.4859-36.8232,49.18a85.9729,85.9729,0,0,1-45.4283-.5148c-21.0519-6.1457-34.7253-25.8-34.7474-48.7286q-.092-95.598-.0222-191.1962,0-86.1951.0038-172.39c.0075-32.09,21.23-53.3971,53.3309-53.2412,8.66.0421,17.5941-.2145,25.9217,1.7274,22.8589,5.33,37.735,25.3225,37.7655,49.488Q199.9243,158.4622,199.8339,250.1425Z"/><path d="M417.2111,249.8953q0,91.1578-.0223,182.3156c-.0267,24.1339-14.3549,43.8309-37.0917,49.5007a86.6048,86.6048,0,0,1-44.9324-.5039c-21.0237-5.9979-34.9333-25.7448-34.9753-48.566q-.1261-68.4334-.0262-136.8673,0-113.36.0028-226.7191c.0038-32.436,21.1437-53.644,53.607-53.4925,8.49.04,17.2387-.2211,25.4151,1.6441,22.9978,5.2462,37.9761,25.3849,38.0019,49.85Q417.2866,158.4762,417.2111,249.8953Z"/></svg>