<svg id="Layer_1" data-name="Layer 1" xmlns="http://www.w3.org/2000/svg" viewBox="0 0 150 150"><defs><style>.cls-1{fill:#fff;}</style></defs><path class="cls-1" d="M25.06,147.15H21.49a2.83,2.83,0,0,0-.55-.21,12.21,12.21,0,0,1-9.2-6.41c-1.92-3.41-2.36-7.13-2.36-10.9q0-54.49,0-109a29.76,29.76,0,0,1,1.09-7.9c1.82-6.44,7.16-10,13.84-9.57A25.73,25.73,0,0,1,34.79,6.57Q85.25,33.95,135.68,61.34a33.37,33.37,0,0,1,6.61,4.72c5.48,5.09,5.72,11.66.88,17.29a26.36,26.36,0,0,1-7.66,5.71L39.88,140.92C35.17,143.48,30.58,146.31,25.06,147.15Z"/></svg>