<svg xmlns="http://www.w3.org/2000/svg" width="32" height="33" viewBox="0 0 32 33"><g transform="translate(-0.389 0.191)"><ellipse cx="16" cy="16.5" rx="16" ry="16.5" transform="translate(0.389 -0.191)" fill="#f4ecff"/><path d="M16.542,15.4l0,0c-.066.079-.142.149-.211.225-.133.148-.265.3-.406.434-.1.1-.206.189-.31.282-.132.119-.264.237-.4.347-.115.092-.234.178-.353.265-.138.1-.277.2-.422.293q-.189.121-.384.233-.222.129-.45.246c-.133.068-.267.133-.4.195-.16.072-.324.138-.489.2-.137.052-.272.1-.411.15-.177.059-.359.108-.541.156-.134.035-.265.074-.4.1-.209.045-.423.077-.636.108-.115.017-.227.04-.343.053a9.323,9.323,0,0,1-8.22-3.333v2.669H.721V12.265H6.487v1.441H2.747a7.9,7.9,0,0,0,6.624,3.6,8.008,8.008,0,0,0,.857-.048c.1-.011.193-.03.29-.044.18-.027.361-.054.538-.092.115-.025.227-.058.34-.087.154-.041.306-.082.456-.132.118-.039.234-.084.35-.128.139-.053.277-.108.411-.169.117-.052.231-.108.344-.166q.193-.1.379-.206c.11-.065.22-.129.327-.2s.238-.161.354-.247c.1-.074.2-.146.3-.225.117-.094.227-.193.339-.293.088-.079.179-.156.263-.239.12-.118.233-.243.345-.369A7.923,7.923,0,1,0,1.442,9.382H0A9.37,9.37,0,1,1,16.542,15.4Z" transform="matrix(-0.848, -0.53, 0.53, -0.848, 19.323, 29.218)" fill="#b99ee3"/><g transform="translate(3.429 7.097)"><path d="M3.619,3,1.5,4.908l.636.706,2.12-1.908L3.618,3Z" transform="translate(-1.5 -2.83)" fill="#a69ae5"/><ellipse cx="4" cy="4.5" rx="4" ry="4.5" transform="translate(0.96 -0.289)" fill="#f4ecff"/><path d="M16.5,12h.951v1.9h1.426v.951H16.5Z" transform="translate(-11.747 -8.978)" fill="#a69ae5"/><path d="M4.5,8.778a4.278,4.278,0,1,1,4.278,4.278A4.278,4.278,0,0,1,4.5,8.778Zm.951,0a3.327,3.327,0,1,1,3.327,3.327A3.327,3.327,0,0,1,5.451,8.778Z" transform="translate(-3.549 -3.855)" fill="#a69ae5" fill-rule="evenodd"/><path d="M26.44,3l2.119,1.908-.636.706L25.8,3.706,26.44,3Z" transform="translate(-18.102 -2.83)" fill="#a69ae5"/></g></g></svg>