<svg xmlns="http://www.w3.org/2000/svg" width="25.869" height="25.873" viewBox="0 0 25.869 25.873"><g transform="translate(-142.101 -355.348)"><path d="M16.567,15.424l0,0c-.066.08-.142.149-.212.225-.133.148-.265.3-.406.435-.1.1-.207.189-.311.282-.132.119-.264.237-.4.348-.116.092-.235.178-.354.265-.139.1-.278.2-.422.293q-.19.121-.385.234-.222.129-.451.246c-.133.068-.267.133-.4.2-.16.073-.324.138-.49.2-.137.052-.273.1-.412.15-.178.059-.359.108-.542.157-.134.035-.266.074-.4.1-.209.046-.424.077-.637.108-.116.017-.227.04-.343.053a9.337,9.337,0,0,1-8.233-3.338v2.673H.722V12.283H6.5v1.444H2.751a7.913,7.913,0,0,0,6.634,3.609,8.02,8.02,0,0,0,.859-.048c.1-.011.193-.03.291-.044.18-.027.362-.054.538-.092.115-.025.227-.058.341-.087.154-.041.307-.082.457-.132.118-.039.235-.084.351-.128.139-.053.277-.108.411-.169.117-.052.231-.108.345-.166q.193-.1.38-.207c.11-.065.22-.13.327-.2s.238-.162.355-.247c.1-.074.2-.146.3-.225.117-.094.228-.193.339-.293.089-.08.179-.157.264-.239.121-.118.233-.244.346-.37A7.935,7.935,0,1,0,1.444,9.4H0a9.384,9.384,0,1,1,16.567,6.028Z" transform="matrix(-0.848, -0.53, 0.53, -0.848, 158.019, 381.221)" fill="#9b77d2"/><circle cx="4.493" cy="4.493" r="4.493" transform="translate(143.111 358.327)" fill="#f4ecff"/><g transform="translate(142.102 359.237)"><path d="M3.623,3,1.5,4.911l.637.707L4.26,3.707,3.622,3Z" transform="translate(-1.5 -3)" fill="#a69ae5"/><path d="M16.5,12h.952v1.9H18.88v.952H16.5Z" transform="translate(-11.74 -9.144)" fill="#a69ae5"/><path d="M4.5,8.784a4.284,4.284,0,1,1,4.284,4.284A4.284,4.284,0,0,1,4.5,8.784Zm.952,0a3.332,3.332,0,1,1,3.332,3.332A3.332,3.332,0,0,1,5.452,8.784Z" transform="translate(-3.548 -4.024)" fill="#a69ae5" fill-rule="evenodd"/><path d="M26.441,3l2.123,1.911-.637.707L25.8,3.707,26.441,3Z" transform="translate(-18.09 -3)" fill="#a69ae5"/></g></g></svg>