<svg xmlns="http://www.w3.org/2000/svg" width="32" height="33" viewBox="0 0 32 33"><g transform="translate(-369.999 -77)"><ellipse cx="16" cy="16.5" rx="16" ry="16.5" transform="translate(369.999 77)" fill="#fff5d2"/><g transform="translate(-471.821 -344.456)"><g transform="translate(847.821 427.957)"><path d="M847.821,451.334a1.743,1.743,0,0,1,1.954-1.225c.427.027.858,0,1.287.007.352.006.606.141.608.543a.619.619,0,0,1-.643.676c-.473.007-.947,0-1.421,0-.325.006-.539.159-.541.509,0,1.138,0,2.276,0,3.447h17.513v-1.347c0-.651,0-1.3,0-1.953,0-.5-.165-.653-.668-.657-.414,0-.829.007-1.243,0s-.534-.318-.575-.656a.461.461,0,0,1,.494-.551c.635-.018,1.273-.02,1.906.023.728.05,1.077.574,1.331,1.183v15.555a1.843,1.843,0,0,1-1.244,1.244h-17.51a1.844,1.844,0,0,1-1.244-1.244Zm1.253,5.435c-.006.134-.014.222-.014.309q0,4.576,0,9.152c0,.544.124.659.691.659h16.083c.629,0,.742-.115.742-.754q0-4.465,0-8.93c0-.142-.013-.285-.02-.437Z" transform="translate(-847.821 -448.135)" fill="#ffc53e"/><path d="M903.056,427.957a1.057,1.057,0,0,1,.638,1.166c-.04.944-.008,1.891-.012,2.837a.83.83,0,0,1-.882.883.858.858,0,0,1-.982-.846c-.014-1.064,0-2.128,0-3.192,0-.485.334-.682.71-.849Z" transform="translate(-897.012 -427.957)" fill="#ffc53e"/><path d="M998.389,427.957a1.02,1.02,0,0,1,.648,1.115c-.04.961-.008,1.924-.013,2.887a.826.826,0,0,1-.879.885.842.842,0,0,1-.96-.86c-.013-1.051.007-2.1-.009-3.154-.007-.492.316-.689.679-.874Z" transform="translate(-983.901 -427.957)" fill="#ffc53e"/><path d="M936.721,450.154c.532,0,1.065-.007,1.6,0,.452.007.646.184.638.553a.617.617,0,0,1-.653.669q-1.6.007-3.195,0a.62.62,0,0,1-.641-.68c0-.4.259-.537.612-.541C935.626,450.149,936.174,450.154,936.721,450.154Z" transform="translate(-926.766 -448.178)" fill="#ffc53e"/><text transform="translate(1.732 14.389)" fill="#ffc53e" font-size="7" font-family="BebasNeueBold, Bebas Neue"><tspan x="0" y="0">PYQ</tspan></text><rect width="1.214" height="0.929" transform="translate(13.925 10.862)" fill="#ffc53e"/><rect width="1.214" height="0.929" transform="translate(13.925 12.23)" fill="#ffc53e"/><rect width="1.214" height="0.929" transform="translate(13.925 13.597)" fill="#ffc53e"/><rect width="1.214" height="0.929" transform="translate(13.925 14.965)" fill="#ffc53e"/><rect width="1.214" height="0.929" transform="translate(13.925 16.332)" fill="#ffc53e"/><rect width="1.214" height="0.929" transform="translate(15.507 10.862)" fill="#ffc53e"/><rect width="1.214" height="0.929" transform="translate(15.507 12.23)" fill="#ffc53e"/><rect width="1.214" height="0.929" transform="translate(15.507 13.597)" fill="#ffc53e"/><rect width="1.214" height="0.929" transform="translate(15.507 14.965)" fill="#ffc53e"/><rect width="1.214" height="0.929" transform="translate(17.056 10.862)" fill="#ffc53e"/><rect width="1.214" height="0.929" transform="translate(17.056 12.23)" fill="#ffc53e"/><rect width="1.214" height="0.929" transform="translate(17.056 13.597)" fill="#ffc53e"/><rect width="1.214" height="0.929" transform="translate(17.056 14.965)" fill="#ffc53e"/></g></g></g></svg>