<svg xmlns="http://www.w3.org/2000/svg" width="21.91" height="21.91" viewBox="0 0 21.91 21.91"><g transform="translate(-847.821 -427.957)"><g transform="translate(847.821 427.957)"><path d="M847.821,451.452a1.909,1.909,0,0,1,2.141-1.342c.468.03.94,0,1.41.008.386.007.664.154.666.6a.678.678,0,0,1-.7.741c-.519.008-1.038,0-1.556,0-.356.007-.591.175-.592.557,0,1.247,0,2.494,0,3.776h19.186v-1.476c0-.713,0-1.427,0-2.14,0-.543-.18-.715-.732-.72-.454,0-.908.008-1.362,0s-.585-.349-.63-.718a.5.5,0,0,1,.541-.6c.7-.02,1.394-.022,2.088.025.8.054,1.18.629,1.458,1.3v17.041a2.02,2.02,0,0,1-1.363,1.363H849.184a2.02,2.02,0,0,1-1.363-1.363Zm1.373,5.954c-.007.147-.015.243-.015.339q0,5.014,0,10.027c0,.6.136.722.757.723h17.62c.689,0,.813-.126.813-.826q0-4.892,0-9.783c0-.156-.014-.312-.022-.478Z" transform="translate(-847.821 -447.947)" fill="#ffc53e"/><path d="M903.175,427.957a1.158,1.158,0,0,1,.7,1.278c-.044,1.034-.009,2.072-.013,3.108a.91.91,0,0,1-.966.968.94.94,0,0,1-1.076-.926c-.016-1.166,0-2.332-.005-3.5,0-.531.366-.747.777-.93Z" transform="translate(-896.553 -427.957)" fill="#ffc53e"/><path d="M998.5,427.957a1.118,1.118,0,0,1,.711,1.221c-.044,1.053-.009,2.108-.014,3.163a.9.9,0,0,1-.963.97.923.923,0,0,1-1.052-.942c-.014-1.152.008-2.3-.01-3.455-.008-.54.346-.755.744-.957Z" transform="translate(-982.632 -427.957)" fill="#ffc53e"/><path d="M936.937,450.154c.583,0,1.167-.007,1.75,0,.495.008.707.2.7.606a.676.676,0,0,1-.715.733q-1.75.008-3.5,0a.68.68,0,0,1-.7-.745c0-.438.284-.588.67-.593C935.737,450.149,936.337,450.154,936.937,450.154Z" transform="translate(-926.03 -447.99)" fill="#ffc53e"/><text transform="translate(1.898 16.191)" fill="#ffc53e" font-size="8" font-family="BebasNeueBold, Bebas Neue"><tspan x="0" y="0">PYQ</tspan></text><rect width="1.33" height="1.018" transform="translate(15.255 11.9)" fill="#ffc53e"/><rect width="1.33" height="1.018" transform="translate(15.255 13.398)" fill="#ffc53e"/><rect width="1.33" height="1.018" transform="translate(15.255 14.897)" fill="#ffc53e"/><rect width="1.33" height="1.018" transform="translate(15.255 16.395)" fill="#ffc53e"/><rect width="1.33" height="1.018" transform="translate(15.255 17.893)" fill="#ffc53e"/><rect width="1.33" height="1.018" transform="translate(16.989 11.9)" fill="#ffc53e"/><rect width="1.33" height="1.018" transform="translate(16.989 13.398)" fill="#ffc53e"/><rect width="1.33" height="1.018" transform="translate(16.989 14.897)" fill="#ffc53e"/><rect width="1.33" height="1.018" transform="translate(16.989 16.395)" fill="#ffc53e"/><rect width="1.33" height="1.018" transform="translate(18.686 11.9)" fill="#ffc53e"/><rect width="1.33" height="1.018" transform="translate(18.686 13.398)" fill="#ffc53e"/><rect width="1.33" height="1.018" transform="translate(18.686 14.897)" fill="#ffc53e"/><rect width="1.33" height="1.018" transform="translate(18.686 16.395)" fill="#ffc53e"/></g></g></svg>