<svg id="Layer_1" data-name="Layer 1" xmlns="http://www.w3.org/2000/svg" viewBox="0 0 150 150"><defs><style>.cls-1{fill:#fff;}</style></defs><path class="cls-1" d="M6.48,72.44c.37-2.19.64-4.4,1.12-6.56A41.16,41.16,0,0,1,42.33,34.42a57.22,57.22,0,0,1,6.54-.37q33.33,0,66.67,0h1.83L106.63,23.32l9.56-9.55,27,26.92L116,67.82l-9.4-9.46q5.19-5.18,10.66-10.63c-.49,0-.93-.07-1.36-.07q-33.87,0-67.73,0c-13.55,0-24.5,8.71-27.41,21.65-.41,1.82-.53,3.7-.83,5.8H6.48Z"/><path class="cls-1" d="M34.09,82.4l9.36,9.37L32.61,102.58h1.64c22.44,0,44.88-.1,67.33,0A27.72,27.72,0,0,0,129,82.1c.56-2.22.79-4.53,1.19-6.88h13.35a33.8,33.8,0,0,1-1.37,10.43c-5.12,16.72-16.28,26.8-33.48,30.05a41.21,41.21,0,0,1-7.46.49q-33.33,0-66.66,0H32.71l10.73,10.7-9.56,9.59c-9-9-18-18-26.95-26.95Z"/></svg>