<svg xmlns="http://www.w3.org/2000/svg" width="20.634" height="19.201" viewBox="0 0 20.634 19.201">
  <path id="warning" d="M11.813,15.04V12.962a.349.349,0,0,0-.1-.257.336.336,0,0,0-.246-.1h-2.1a.336.336,0,0,0-.246.1.351.351,0,0,0-.1.257V15.04a.349.349,0,0,0,.1.257.336.336,0,0,0,.246.1h2.1a.336.336,0,0,0,.246-.1.349.349,0,0,0,.1-.257Zm-.022-4.091.2-5.021a.241.241,0,0,0-.109-.208.423.423,0,0,0-.263-.12H9.209a.425.425,0,0,0-.263.12.262.262,0,0,0-.109.23l.186,5a.21.21,0,0,0,.109.18A.472.472,0,0,0,9.4,11.2h2.023a.445.445,0,0,0,.257-.071.244.244,0,0,0,.115-.18ZM11.638.734l8.4,15.4a1.3,1.3,0,0,1-.022,1.378,1.4,1.4,0,0,1-1.2.689H2.012a1.4,1.4,0,0,1-1.2-.689,1.3,1.3,0,0,1-.022-1.378l8.4-15.4A1.4,1.4,0,0,1,9.7.2a1.383,1.383,0,0,1,1.422,0,1.4,1.4,0,0,1,.514.536Z" transform="translate(-0.096 0.499)" fill="none" stroke="#fed01b" stroke-width="1"/>
</svg>
