<svg id="Layer_1" data-name="Layer 1" xmlns="http://www.w3.org/2000/svg" viewBox="0 0 100 100"><path d="M50.1151,98.6674c-11.6856,0-23.3713.0214-35.0568-.0087A13.4755,13.4755,0,0,1,1.722,88.2657a15.2343,15.2343,0,0,1-.3834-3.5174q-.0324-34.8585-.01-69.7172A13.4624,13.4624,0,0,1,15.171,1.1232q34.93-.0319,69.86,0A13.4846,13.4846,0,0,1,98.89,15.0244q.0276,34.8585,0,69.7172C98.8839,92.807,93.0075,98.65,84.9178,98.6628Q67.5166,98.6915,50.1151,98.6674ZM43.1266,61.703c-.5675-.7305-.8-1.0814-1.0826-1.3852-2.8835-3.098-5.7807-6.1834-8.6616-9.2838a2.7452,2.7452,0,0,0-3.0467-1.01c-2.0554.6766-2.5075,2.9854-.9045,4.7124q5.442,5.8628,10.9129,11.6986c1.9039,2.0339,3.1391,2.0508,5.11.081Q60.1394,51.841,74.8162,37.1577a7.9726,7.9726,0,0,0,1.0036-1.14,2.6732,2.6732,0,0,0-3.7184-3.69,9.2187,9.2187,0,0,0-1.2246,1.0995q-13.3845,13.3721-26.7524,26.76A10.246,10.246,0,0,0,43.1266,61.703Z"/></svg>