<svg id="Layer_1" data-name="Layer 1" xmlns="http://www.w3.org/2000/svg" viewBox="0 0 100 100"><path d="M.5806,83.2036V16.7964a2.8976,2.8976,0,0,0,.1827-.5249A18.0413,18.0413,0,0,1,14.4791,1.1079c.7675-.1953,1.5446-.3524,2.3173-.5273H83.2036a2.894,2.894,0,0,0,.5248.1827A18.0415,18.0415,0,0,1,98.8922,14.4792c.1952.7674.3523,1.5445.5272,2.3172V83.2036a2.8976,2.8976,0,0,0-.1827.5249A18.0415,18.0415,0,0,1,85.5208,98.8922c-.7674.1952-1.5445.3523-2.3172.5272H16.7964a2.8976,2.8976,0,0,0-.5249-.1827A18.0414,18.0414,0,0,1,1.1079,85.5209C.9126,84.7534.7555,83.9763.5806,83.2036ZM49.9279,96.1309c10.3583,0,20.7166.0185,31.0748-.0057A14.8064,14.8064,0,0,0,96.1228,81.05q.0372-31.0264.0015-62.053A14.7987,14.7987,0,0,0,81.05,3.8772Q50.0239,3.84,18.9973,3.8757A14.7987,14.7987,0,0,0,3.8772,18.95Q3.84,49.9762,3.9047,81.0026a16.2743,16.2743,0,0,0,.8263,5.1037A14.6713,14.6713,0,0,0,19.0462,96.1272Q34.487,96.1486,49.9279,96.1309Z"/></svg>