<svg xmlns="http://www.w3.org/2000/svg" viewBox="0 0 2160 2160"><defs><style>.cls-1{fill:#ed3237;}.cls-2{fill:#a8cf45;}.cls-3{fill:#ffcc29;}.cls-4{fill:#00afef;}</style></defs><g id="Layer_2" data-name="Layer 2"><path class="cls-1" d="M567.7412,405.1351C695.1631,284.7915,827.9185,147.974,962.887,36.7135c74.7833-61.6474,192.0342-41.5551,266.5778,29.6922,152.4635,145.721,304.2117,292.5342,449.2976,445.4468,105.1231,110.7939,91.545,255.7816-20.9127,360.392-115.8437,107.76-255.2324,105.8658-369.5883-6.7652-109.4709-107.82-234.9692-202.5037-325.2236-326.5737C787.7651,297.9635,570.119,414.8233,567.7412,405.1351Z"/></g><g id="Layer_3" data-name="Layer 3"><path class="cls-2" d="M395.5711,1552.8278c-121.6183-116.0423-237.7538-216.4382-340.86-328.7063-75.1359-81.8129-68.04-205.459,11.58-289.12C213.7345,780.0747,364.9166,628.3434,520.58,481.6389c96.8591-91.2841,243.9018-75.5142,340.663,24.1409,105.4591,108.613,112.1084,238.9327,10.394,345.7536-122.5562,128.7089-246.7721,256.2244-376.4762,377.68C401.3694,1317.0407,351.1929,1412.8318,395.5711,1552.8278Z"/></g><g id="Layer_4" data-name="Layer 4"><path class="cls-3" d="M1766.6857,607.1722C1888.304,723.2145,2004.44,823.61,2107.5456,935.8785c75.1358,81.8129,68.04,205.459-11.5806,289.1205-147.4427,154.9263-298.6248,306.6576-454.2884,453.3621-96.8591,91.2841-243.9018,75.5142-340.663-24.1409-105.4591-108.613-112.1084-238.9327-10.394-345.7536,122.5563-128.7089,246.7721-256.2244,376.4763-377.68C1760.8875,842.9593,1811.0639,747.1682,1766.6857,607.1722Z"/></g><g id="Layer_5" data-name="Layer 5"><path class="cls-4" d="M1594.5157,1754.8649c-127.422,120.3436-260.1773,257.1611-395.1459,368.4216-74.7833,61.6474-192.0341,41.5551-266.5778-29.6922C780.3286,1947.8733,628.58,1801.06,483.4944,1648.1475c-105.1231-110.7939-91.545-255.7816,20.9127-360.392,115.8437-107.76,255.2324-105.8658,369.5883,6.7652,109.4709,107.82,234.9692,202.5037,325.2236,326.5737C1374.4917,1862.0365,1592.1378,1745.1767,1594.5157,1754.8649Z"/></g></svg>