<svg xmlns="http://www.w3.org/2000/svg" xmlns:xlink="http://www.w3.org/1999/xlink" width="119.517" height="79.759" viewBox="0 0 119.517 79.759">
  <defs>
    <filter id="Path_695" x="-3" y="0" width="125.517" height="85.759" filterUnits="userSpaceOnUse">
      <feOffset dy="3" input="SourceAlpha"/>
      <feGaussianBlur stdDeviation="1" result="blur"/>
      <feFlood flood-color="#224aff" flood-opacity="0.188"/>
      <feComposite operator="in" in2="blur"/>
      <feComposite in="SourceGraphic"/>
    </filter>
    <clipPath id="clip-path">
      <g transform="matrix(1, 0, 0, 1, 0, 0)" filter="url(#Path_695)">
        <path id="Path_695-2" data-name="Path 695" d="M114.275,0H5.242C2.347,0,0,2.747,0,6.135V73.624c0,3.388,2.347,6.135,5.242,6.135H114.275c2.9,0,5.242-2.747,5.242-6.135V6.135C119.517,2.747,117.17,0,114.275,0Z" transform="translate(0 0)" fill="#f4ecff" stroke="#fff" stroke-width="1"/>
      </g>
    </clipPath>
  </defs>
  <g id="Mask_Group_49" data-name="Mask Group 49" opacity="0.18" clip-path="url(#clip-path)">
    <g id="Group_462" data-name="Group 462" transform="translate(38.262 -18.217)" opacity="0.32" style="mix-blend-mode: normal;isolation: isolate">
      <path id="Path_692" data-name="Path 692" d="M-1472.183,605.325c2.505-.489,4.665-.939,6.837-1.311a2.9,2.9,0,0,1,1.485.2q3.75,1.492,7.456,3.087a2.92,2.92,0,0,1,1.19.917c1.174,1.655,2.3,3.35,3.412,5.045a2.429,2.429,0,0,0,2.191,1.187q6.2-.023,12.4,0a2.357,2.357,0,0,0,2.11-1.138c1.123-1.692,2.236-3.391,3.416-5.043a3.124,3.124,0,0,1,1.265-.976q3.656-1.58,7.36-3.047a3.135,3.135,0,0,1,1.581-.212c1.9.313,3.785.7,5.669,1.1a2.9,2.9,0,0,0,2.93-.9q4.028-4.144,8.175-8.171a2.975,2.975,0,0,0,.932-3.021c-.4-1.882-.781-3.771-1.108-5.667a2.7,2.7,0,0,1,.155-1.394q1.532-3.844,3.162-7.651a2.5,2.5,0,0,1,.8-1.03q2.491-1.751,5.049-3.408a2.566,2.566,0,0,0,1.275-2.356q-.035-6.095,0-12.189a2.493,2.493,0,0,0-1.229-2.274c-1.67-1.091-3.336-2.193-4.958-3.354a3.129,3.129,0,0,1-.972-1.266q-1.579-3.657-3.047-7.362a3.127,3.127,0,0,1-.214-1.581c.31-1.9.7-3.785,1.1-5.668a2.9,2.9,0,0,0-.9-2.932q-4.181-4.064-8.248-8.246a2.833,2.833,0,0,0-2.841-.876c-1.918.4-3.838.795-5.771,1.121a2.916,2.916,0,0,1-1.486-.2q-3.747-1.493-7.456-3.087a2.925,2.925,0,0,1-1.188-.917c-1.176-1.655-2.3-3.35-3.412-5.046a2.426,2.426,0,0,0-2.19-1.186q-6.2.022-12.4,0a2.354,2.354,0,0,0-2.109,1.137c-1.123,1.692-2.238,3.391-3.416,5.043a3.135,3.135,0,0,1-1.266.977q-3.655,1.579-7.359,3.046a3.128,3.128,0,0,1-1.58.213c-1.9-.312-3.786-.7-5.669-1.1a2.9,2.9,0,0,0-2.931.9c-2.661,2.738-5.353,5.446-8.1,8.094a3.113,3.113,0,0,0-.987,3.2q.617,2.765,1.088,5.563a2.91,2.91,0,0,1-.2,1.486q-1.491,3.749-3.085,7.457a2.926,2.926,0,0,1-.913,1.189c-1.625,1.157-3.285,2.267-4.961,3.351a2.558,2.558,0,0,0-1.276,2.355q.035,6.094,0,12.189a2.5,2.5,0,0,0,1.227,2.275c1.671,1.091,3.337,2.193,4.959,3.354a3.135,3.135,0,0,1,.974,1.265q1.576,3.658,3.044,7.361a3.135,3.135,0,0,1,.218,1.581c-.312,1.9-.7,3.785-1.1,5.668a2.9,2.9,0,0,0,.9,2.931c2.813,2.734,5.545,5.552,8.353,8.289A7.842,7.842,0,0,0-1472.183,605.325Zm-6.5-67.557a4.23,4.23,0,0,1,.485-.693c2.095-2.115,4.185-4.236,6.329-6.3a1.818,1.818,0,0,1,1.352-.415c1.9.3,3.774.761,5.676,1.04a4.069,4.069,0,0,0,1.994-.306q4.425-1.766,8.795-3.67a4.57,4.57,0,0,0,1.773-1.329c1.117-1.479,2.065-3.084,3.159-4.581a1.822,1.822,0,0,1,1.249-.667c2.941-.058,5.885-.012,8.828-.045a1.421,1.421,0,0,1,1.355.748c1.027,1.587,2.058,3.176,3.179,4.7a3.869,3.869,0,0,0,1.543,1.143q4.471,1.931,8.993,3.738a3.847,3.847,0,0,0,1.9.281c1.832-.275,3.649-.662,5.46-1.055a1.666,1.666,0,0,1,1.762.509c1.993,2.068,4.031,4.093,6.088,6.1a1.427,1.427,0,0,1,.454,1.479c-.4,1.884-.8,3.769-1.085,5.671a3.835,3.835,0,0,0,.289,1.9q1.79,4.472,3.709,8.892a4.318,4.318,0,0,0,1.273,1.692c1.483,1.111,3.047,2.118,4.608,3.121a1.419,1.419,0,0,1,.727,1.368c-.029,2.907-.035,5.815,0,8.722a1.492,1.492,0,0,1-.794,1.441c-1.562,1-3.122,2.012-4.608,3.119a4.094,4.094,0,0,0-1.2,1.621q-1.918,4.419-3.7,8.9a4.077,4.077,0,0,0-.289,2c.274,1.867.677,3.718,1.061,5.567a1.424,1.424,0,0,1-.424,1.488c-2.109,2.052-4.155,4.169-6.274,6.209a1.819,1.819,0,0,1-1.351.412c-1.866-.29-3.7-.757-5.574-1.015a4.553,4.553,0,0,0-2.188.336c-2.89,1.142-5.761,2.33-8.6,3.585a5.079,5.079,0,0,0-1.93,1.448c-1.108,1.441-2.027,3.025-3.1,4.493a1.817,1.817,0,0,1-1.248.667c-2.943.058-5.885.011-8.828.045a1.422,1.422,0,0,1-1.355-.75c-1.009-1.557-2.01-3.125-3.123-4.607a4.33,4.33,0,0,0-1.7-1.258q-4.368-1.9-8.8-3.661a4.322,4.322,0,0,0-2.094-.306c-1.8.255-3.581.644-5.359,1.03a1.663,1.663,0,0,1-1.761-.51c-1.993-2.068-4.031-4.093-6.087-6.1a1.422,1.422,0,0,1-.455-1.478c.4-1.883.8-3.768,1.086-5.67a3.827,3.827,0,0,0-.287-1.9q-1.791-4.471-3.711-8.891a4.317,4.317,0,0,0-1.273-1.692c-1.513-1.13-3.141-2.107-4.672-3.214a1.688,1.688,0,0,1-.623-1.169q-.079-4.465,0-8.932a1.825,1.825,0,0,1,.683-1.241c1.5-1.093,3.1-2.041,4.583-3.158a4.587,4.587,0,0,0,1.322-1.779q1.886-4.318,3.616-8.7a4.52,4.52,0,0,0,.322-2.192C-1477.811,541.928-1478.259,539.944-1478.679,537.768Z" transform="translate(1492.43 -516.469)" fill="#2950ff"/>
      <path id="Path_693" data-name="Path 693" d="M-1418.972,623.534a33.608,33.608,0,0,0,33.65,33.479,33.61,33.61,0,0,0,33.453-33.677,33.6,33.6,0,0,0-33.7-33.426A33.609,33.609,0,0,0-1418.972,623.534Zm7.557-13.081a28.816,28.816,0,0,1,27.242-16.175,28.521,28.521,0,0,1,17.724,7.02,28.617,28.617,0,0,1,7.138,9.157c-2.069,0-3.924-.083-5.764.043a2.805,2.805,0,0,0-1.933.942,2.852,2.852,0,0,0-.167,2.139,1.9,1.9,0,0,0,2.019,1.209c2.242,0,4.485-.012,6.726.02.332,0,.909.161.953.348.484,1.981.881,3.982,1.341,6.158h-1.691c-3.4,0-6.8.01-10.193,0a2.176,2.176,0,0,0-2.174,1.172,2.126,2.126,0,0,0,2.038,3.111c3.5.033,7.005.012,10.508.012h1.472c-.374,1.953-.725,3.69-1.031,5.436-.145.828-.515,1.14-1.406,1.11-2.2-.073-4.414-.047-6.619-.011a2.161,2.161,0,0,0-2.234,2.172,2.164,2.164,0,0,0,2.147,2.145c.525.028,1.05.011,1.575.011,1.414,0,2.828,0,4.311,0a28.8,28.8,0,0,1-27.232,16.173,28.518,28.518,0,0,1-17.806-7.087,28.607,28.607,0,0,1-7.061-9.086h4.607c.456,0,.912.014,1.365-.009a2.167,2.167,0,0,0,2.177-2.116,2.153,2.153,0,0,0-2.2-2.2c-2.276-.04-4.554,0-6.829-.031-.334,0-.913-.16-.958-.348-.484-1.98-.88-3.982-1.339-6.158h1.691c3.4,0,6.794-.011,10.193,0a2.177,2.177,0,0,0,2.174-1.173,2.127,2.127,0,0,0-2.04-3.11c-3.5-.033-7.006-.012-10.509-.012h-1.471c.381-1.989.731-3.762,1.06-5.54a1.06,1.06,0,0,1,1.274-1c2.135.064,4.273.029,6.41.018,1.561-.009,2.549-.87,2.545-2.183s-.993-2.141-2.568-2.15C-1407.729,610.445-1409.511,610.453-1411.415,610.453Z" transform="translate(1434.412 -574.473)" fill="#2950ff"/>
      <path id="Path_694" data-name="Path 694" d="M-1288.244,686.8c-3.083,0-5.95-.017-8.815.014a3.7,3.7,0,0,0-1.611.335,2.064,2.064,0,0,0-.769,2.76q3.113,6.943,6.292,13.856a2.115,2.115,0,0,0,2.9,1.088,2.13,2.13,0,0,0,.988-2.942c-1.429-3.231-2.9-6.441-4.361-9.661-.14-.31-.263-.628-.457-1.094.5-.024.86-.057,1.226-.057,2.556,0,5.113.012,7.669,0,2.1-.014,3.025-1.469,2.156-3.4q-3-6.649-6.036-13.28a2.189,2.189,0,0,0-2.642-1.509c-1.443.39-2,1.731-1.311,3.275,1.412,3.161,2.856,6.31,4.284,9.465C-1288.587,685.96-1288.463,686.277-1288.244,686.8Z" transform="translate(1340.163 -639.963)" fill="#2950ff"/>
    </g>
  </g>
</svg>
