<svg xmlns="http://www.w3.org/2000/svg" width="32.751" height="32.749" viewBox="0 0 32.751 32.749"><g transform="translate(1492.429 -516.469)"><path d="M-1466.446,546.169c-.838-.163-1.559-.314-2.285-.438a.973.973,0,0,0-.5.066q-1.253.5-2.492,1.032a.974.974,0,0,0-.4.307c-.393.553-.767,1.12-1.14,1.686a.812.812,0,0,1-.732.4q-2.072-.008-4.144,0a.788.788,0,0,1-.705-.38c-.375-.565-.748-1.133-1.142-1.685a1.041,1.041,0,0,0-.423-.326q-1.222-.528-2.46-1.019a1.049,1.049,0,0,0-.529-.071c-.634.1-1.265.234-1.895.367a.97.97,0,0,1-.979-.3q-1.346-1.385-2.732-2.731a.994.994,0,0,1-.312-1.01c.135-.629.261-1.26.37-1.894a.9.9,0,0,0-.051-.466q-.513-1.285-1.057-2.557a.837.837,0,0,0-.266-.344q-.833-.585-1.688-1.139a.858.858,0,0,1-.426-.788q.012-2.037,0-4.074a.833.833,0,0,1,.41-.76c.559-.364,1.115-.733,1.657-1.121a1.049,1.049,0,0,0,.325-.423q.527-1.222,1.018-2.461a1.047,1.047,0,0,0,.072-.528c-.1-.635-.234-1.265-.366-1.894a.97.97,0,0,1,.3-.98q1.4-1.358,2.757-2.756a.947.947,0,0,1,.949-.293c.641.134,1.283.266,1.929.375a.976.976,0,0,0,.5-.066q1.253-.5,2.492-1.032a.976.976,0,0,0,.4-.306c.393-.553.767-1.12,1.141-1.687a.811.811,0,0,1,.732-.4q2.072.008,4.144,0a.787.787,0,0,1,.7.38c.375.566.748,1.134,1.142,1.686a1.048,1.048,0,0,0,.423.327q1.222.528,2.46,1.018a1.045,1.045,0,0,0,.528.071c.635-.1,1.265-.233,1.895-.367a.971.971,0,0,1,.98.3c.889.915,1.789,1.82,2.709,2.705a1.04,1.04,0,0,1,.33,1.07q-.206.924-.364,1.859a.974.974,0,0,0,.067.5q.5,1.253,1.031,2.493a.978.978,0,0,0,.3.4c.543.387,1.1.758,1.658,1.12a.855.855,0,0,1,.427.787q-.012,2.037,0,4.074a.835.835,0,0,1-.41.76c-.558.365-1.115.733-1.657,1.121a1.045,1.045,0,0,0-.325.423q-.527,1.222-1.018,2.46a1.048,1.048,0,0,0-.073.528c.1.635.234,1.265.367,1.895a.969.969,0,0,1-.3.98c-.94.914-1.853,1.856-2.792,2.771A2.617,2.617,0,0,1-1466.446,546.169Zm2.171-22.581a1.427,1.427,0,0,0-.162-.232c-.7-.707-1.4-1.416-2.116-2.106a.607.607,0,0,0-.452-.139c-.635.1-1.261.254-1.9.348a1.36,1.36,0,0,1-.667-.1q-1.479-.59-2.94-1.227a1.527,1.527,0,0,1-.592-.444c-.373-.494-.69-1.031-1.056-1.531a.609.609,0,0,0-.418-.223c-.983-.019-1.967,0-2.951-.015a.475.475,0,0,0-.453.25c-.344.531-.688,1.062-1.062,1.57a1.292,1.292,0,0,1-.516.382q-1.494.646-3.006,1.25a1.286,1.286,0,0,1-.635.094c-.612-.092-1.22-.221-1.825-.352a.557.557,0,0,0-.589.17c-.666.691-1.347,1.368-2.035,2.038a.477.477,0,0,0-.152.495c.133.63.267,1.26.363,1.9a1.286,1.286,0,0,1-.1.635q-.6,1.495-1.24,2.972a1.443,1.443,0,0,1-.425.566c-.5.371-1.019.708-1.54,1.043a.474.474,0,0,0-.243.457c.01.972.012,1.944,0,2.915a.5.5,0,0,0,.265.481c.522.335,1.044.672,1.541,1.043a1.368,1.368,0,0,1,.4.542q.641,1.477,1.237,2.973a1.365,1.365,0,0,1,.1.668c-.092.624-.227,1.242-.355,1.861a.476.476,0,0,0,.142.5c.7.686,1.389,1.393,2.1,2.075a.606.606,0,0,0,.451.138c.624-.1,1.239-.253,1.863-.339a1.525,1.525,0,0,1,.732.112q1.449.572,2.876,1.2a1.7,1.7,0,0,1,.645.484c.37.482.677,1.011,1.037,1.5a.608.608,0,0,0,.417.223c.983.019,1.967,0,2.951.015a.476.476,0,0,0,.453-.251c.337-.521.672-1.044,1.044-1.54a1.448,1.448,0,0,1,.569-.421q1.46-.636,2.941-1.224a1.443,1.443,0,0,1,.7-.1c.6.085,1.2.215,1.791.344a.556.556,0,0,0,.588-.171c.666-.691,1.348-1.368,2.035-2.038a.476.476,0,0,0,.152-.494c-.132-.63-.267-1.26-.363-1.9a1.28,1.28,0,0,1,.1-.635q.6-1.495,1.24-2.972a1.448,1.448,0,0,1,.425-.566c.506-.378,1.05-.7,1.562-1.074a.565.565,0,0,0,.208-.391q.026-1.492,0-2.985a.61.61,0,0,0-.228-.415c-.5-.365-1.037-.682-1.531-1.056a1.53,1.53,0,0,1-.442-.594q-.63-1.443-1.209-2.909a1.506,1.506,0,0,1-.107-.733C-1464.564,524.979-1464.415,524.315-1464.274,523.588Z" transform="translate(0)" fill="#fff"/><path d="M-1396.542,601.149a11.234,11.234,0,0,1-11.247,11.19,11.233,11.233,0,0,1-11.182-11.256,11.232,11.232,0,0,1,11.265-11.173A11.234,11.234,0,0,1-1396.542,601.149Zm-2.526-4.372a9.632,9.632,0,0,0-9.105-5.406,9.533,9.533,0,0,0-5.925,2.346,9.57,9.57,0,0,0-2.386,3.061c.692,0,1.312-.028,1.927.014a.937.937,0,0,1,.646.315.952.952,0,0,1,.056.715.634.634,0,0,1-.675.4c-.749,0-1.5,0-2.248.007-.111,0-.3.054-.319.116-.162.662-.295,1.331-.448,2.058h.565c1.136,0,2.271,0,3.407,0a.727.727,0,0,1,.727.392.711.711,0,0,1-.681,1.04c-1.171.011-2.342,0-3.513,0h-.492c.125.653.242,1.233.344,1.817.048.277.172.381.47.371.737-.024,1.475-.016,2.212,0a.722.722,0,0,1,.747.726.723.723,0,0,1-.718.717c-.175.009-.351,0-.527,0h-1.441a9.628,9.628,0,0,0,9.1,5.406,9.532,9.532,0,0,0,5.952-2.369,9.561,9.561,0,0,0,2.36-3.037h-1.54c-.152,0-.3,0-.456,0a.724.724,0,0,1-.728-.707.72.72,0,0,1,.735-.736c.761-.013,1.522,0,2.282-.01.112,0,.305-.054.32-.116.161-.662.294-1.331.448-2.058h-.565c-1.135,0-2.271,0-3.407,0a.727.727,0,0,1-.727-.392.711.711,0,0,1,.682-1.039c1.171-.011,2.342,0,3.512,0h.492c-.127-.665-.244-1.258-.354-1.852a.354.354,0,0,0-.426-.336c-.714.021-1.428.01-2.143.006-.522,0-.852-.291-.851-.73s.332-.716.859-.719C-1400.3,596.774-1399.7,596.776-1399.068,596.776Z" transform="translate(-68.297 -68.281)" fill="#fff"/><path d="M-1297.813,677.5c1.031,0,1.988-.006,2.946,0a1.235,1.235,0,0,1,.538.112.69.69,0,0,1,.257.922q-1.041,2.321-2.1,4.631a.707.707,0,0,1-.971.364.712.712,0,0,1-.33-.983c.478-1.08.971-2.153,1.458-3.229.047-.1.088-.21.153-.366-.166-.008-.287-.019-.41-.019-.854,0-1.709,0-2.563,0a.732.732,0,0,1-.721-1.135q1-2.222,2.018-4.439a.731.731,0,0,1,.883-.5.725.725,0,0,1,.439,1.095c-.472,1.057-.955,2.109-1.432,3.164C-1297.7,677.219-1297.74,677.324-1297.813,677.5Z" transform="translate(-179.219 -145.375)" fill="#fff"/></g></svg>