<?xml version="1.0" encoding="utf-8"?>
<!-- Generator: Adobe Illustrator 25.0.0, SVG Export Plug-In . SVG Version: 6.00 Build 0)  -->
<svg version="1.1" id="Layer_1" xmlns="http://www.w3.org/2000/svg" xmlns:xlink="http://www.w3.org/1999/xlink" x="0px" y="0px"
	 viewBox="0 0 309.2 316" style="enable-background:new 0 0 309.2 316;" xml:space="preserve">
<style type="text/css">
	.st0{fill:#FFFFFF;}
</style>
<path class="st0" d="M304.3,158.5c0.3,82.1-66.7,149.9-148.4,150.2C72,309,4.2,242.2,3.8,158.9C3.4,76.1,71.1,7.5,153.5,7.2
	C237.4,6.9,303.9,73.7,304.3,158.5z M188.9,145.2h-23c-24.5,0-48.9,0-73.4,0c-6.5,0-11.4,3.4-13.2,9.1c-2.6,8.5,3.7,16.5,13.1,16.5
	c30.8,0,61.6,0,92.5,0c1.3,0,2.6,0,4.7,0c-7.4,7.6-14.2,14.4-20.7,21.4c-4.7,5-4.3,11.3,0.6,16c4.7,4.5,11.1,4.7,15.7,0
	c13.8-14,27.5-28,41.1-42.1c4.7-4.8,4.6-11.4-0.1-16.2c-13.9-14.1-28-28.2-42.1-42.2c-4.8-4.7-11.3-4.4-16,0.4s-4.8,11.1,0,16
	c5.8,6,11.8,11.9,17.7,17.8C186.8,142.8,187.6,143.7,188.9,145.2z"/>
</svg>
