<svg id="Layer_1" data-name="Layer 1" xmlns="http://www.w3.org/2000/svg" viewBox="0 0 150 150"><defs><style>.cls-1{fill:#fff;}</style></defs><path class="cls-1" d="M77.583,146.588H72.545c-.635-.109-1.266-.254-1.906-.32-2.174-.226-4.37-.3-6.524-.652a70.339,70.339,0,0,1-39.34-19.9A69.942,69.942,0,0,1,4.006,82.709c-.193-1.75-.4-3.5-.6-5.248V72.423c.108-.637.245-1.271.319-1.912.319-2.77.439-5.577.955-8.31C7.807,45.635,15.6,31.627,28.507,20.763,47.149,5.071,68.563.057,92.266,5.582a67.661,67.661,0,0,1,37.07,22.889c14.918,17.705,20.145,38.131,15.756,60.8-3.146,16.253-11.4,29.728-24.055,40.4a69.469,69.469,0,0,1-38.208,16.32C81.079,146.173,79.332,146.387,77.583,146.588ZM75.065,64.4c-.488-.462-.895-.831-1.283-1.219Q61.854,51.262,49.931,39.34c-2.525-2.523-4.5-2.506-7.05.04q-1.734,1.729-3.463,3.464c-2.462,2.475-2.459,4.462.021,6.943q11.97,11.975,23.943,23.947c.381.381.725.8,1.366,1.511a11.5,11.5,0,0,0-1.5,1.059q-12.039,12-24.051,24.037c-2.162,2.166-2.16,4.276-.03,6.446,1.176,1.2,2.372,2.378,3.56,3.564,2.757,2.755,4.625,2.769,7.351.046Q61.957,98.526,73.832,86.654c.383-.383.8-.736,1.584-1.457a9.153,9.153,0,0,0,.989,1.53q11.952,11.994,23.938,23.952c2.335,2.333,4.393,2.319,6.753-.02q1.79-1.773,3.563-3.561c2.522-2.531,2.523-4.516-.015-7.055Q98.725,88.117,86.8,76.2c-.385-.385-.742-.8-1.181-1.271.471-.493.844-.9,1.233-1.29q12.021-12.022,24.041-24.046c2.212-2.216,2.2-4.335.01-6.557-1.212-1.229-2.437-2.444-3.66-3.662-2.549-2.537-4.525-2.543-7.05-.019Q88.267,51.272,76.343,63.194C75.957,63.58,75.549,63.945,75.065,64.4Z"/></svg>