<?xml version="1.0" encoding="utf-8"?>
<!-- Generator: Adobe Illustrator 25.0.0, SVG Export Plug-In . SVG Version: 6.00 Build 0)  -->
<svg version="1.1" id="Layer_1" xmlns="http://www.w3.org/2000/svg" xmlns:xlink="http://www.w3.org/1999/xlink" x="0px" y="0px"
	 viewBox="0 0 500 500" style="enable-background:new 0 0 500 500;" xml:space="preserve">
<style type="text/css">
	.st0{fill:#FBB645;}
	.st1{fill:#FFEC7B;}
</style>
<path class="st0" d="M249.4,362.2c-66.4,0-132.8,0-199.2,0.1c-4.4,0-6.1-0.9-6.7-5.6c-4.8-32.9-10-65.7-15.1-98.5
	c-4.1-26.4-8.1-52.9-12.3-79.3c-1.1-7.1,0.6-12.9,6.7-17c5.6-3.8,12.4-3.4,18.6,1.3c28.3,21.2,56.7,42.4,84.9,63.7
	c13.5,10.2,25.6,8.1,35.1-6.1c23.6-35.4,47.2-70.7,70.8-106.1c6.1-9.1,14.5-12.4,23.8-9.3c5,1.7,8.4,5.2,11.3,9.5
	c23.8,35.8,47.7,71.6,71.6,107.3c8.2,12.2,20.9,14.4,32.8,5.7c0.7-0.5,1.3-1,1.9-1.5c27.7-20.7,55.3-41.5,83-62.2
	c2.7-2,5.5-4.1,9-4.5c10.8-1.4,19.2,6.9,17.8,17.6c-1.5,10.9-3.3,21.8-5,32.7c-5.1,33-10.2,66-15.3,99c-2.6,16.7-5.2,33.3-7.7,50
	c-0.4,2.5-1.2,3.5-3.7,3.3c-1.3-0.1-2.6,0-3.9,0L249.4,362.2z"/>
<path class="st1" d="M110.1,104.2c0,0,4.1,31.2-31.2,31.2c0,0,32.6,2.2,32.6,32.6c0,0,2.7-31.5,31.5-31.5
	C143,136.5,114.2,134.7,110.1,104.2z"/>
<path class="st1" d="M370.1,104.2c0,0,4.1,31.2-31.2,31.2c0,0,32.6,2.2,32.6,32.6c0,0,2.7-31.5,31.5-31.5
	C403,136.5,374.2,134.7,370.1,104.2z"/>
<path class="st1" d="M249.1,15c0,0,4.1,31.2-31.2,31.2c0,0,32.6,2.2,32.6,32.6c0,0,2.7-31.5,31.5-31.5C282,47.3,253.2,45.5,249.1,15
	z"/>
<path class="st0" d="M250,396.3c66.4,0,132.8,0,199.2-0.1c4.3,0,5.9,0.9,5.7,5.5c-0.4,13-0.1,26-0.1,39
	c-0.1,15.1-8.9,23.9-23.9,23.9c-121,0-241.9,0-362.9,0c-15.1,0-23.8-8.8-23.9-23.9c0-13.1,0.2-26.3-0.1-39.5c-0.1-4.2,1.4-5,5.3-5
	C116.2,396.4,183.1,396.4,250,396.3z"/>
</svg>
